<svg xmlns="http://www.w3.org/2000/svg" viewBox="0 0 793 793"><defs><style>.cls-1{fill:#c6baaf}.cls-2{fill:#e5e5e5}.cls-3{fill:#70523e}.cls-6{fill:#ff931e}.cls-9{fill:#999}.cls-10{fill:#4d4d4d}</style></defs><circle class="cls-1" cx="396.75" cy="396.75" r="396.25"/><path class="cls-2" d="M50.19 407.93c-8.65-8.65-16.86-18.25-21.28-29.26-5.26 7.51-4.37 18.79-.22 28.61s11.15 18.55 18 27.06c2.66 3.28 5.88 7.09 10 8.19 3.84 1 7.79-1 10.27-3.22a9.29 9.29 0 003.22-7.72c-.3-3.68-2.69-6.8-5.41-9.5-4.77-4.78-9.77-9.37-14.58-14.16zM36 427.09c-8.35-7.62-16.42-16.08-21.34-25.78-3.81 6.62-1.91 16.57 2.67 25.23s11.51 16.34 18.33 23.83c2.62 2.89 5.79 6.25 9.44 7.22 3.43.9 6.65-.88 8.57-2.85a7.5 7.5 0 002-6.81c-.63-3.24-3-6-5.64-8.38-4.65-4.2-9.42-8.24-14.03-12.46zM32.21 453c-8.18-6.74-16.16-14.29-21.29-23.2-3.14 6.5-.81 15.83 3.94 23.77s11.62 14.83 18.38 21.55c2.6 2.58 5.73 5.59 9.17 6.29 3.24.66 6.12-1.22 7.79-3.21a7.26 7.26 0 001.47-6.58c-.77-3-3.14-5.51-5.71-7.61-4.55-3.69-9.21-7.24-13.75-11.01z"/><path class="cls-3" d="M344.53 433.55L296 446.82c-14.12 3.85-28.28 7.72-42.78 9.67-42.7 5.75-86.47-.25-124.59-20.34-14.61-7.71-24.79-15.45-40.73-19.81s-31.94-5.78-44.16 5.34C16.5 446.41 33 485.73 54.86 507.43c34.88 34.61 82.48 51 130.35 56.39 39.41 4.43 79.33 1.76 118.63-3.63"/><path d="M678 673.88c-13.94-60.87-30.54-131-44.48-191.9-6.48-28.29-13-57.36-8.95-86.1 3.2-22.64 12.79-43.81 22.28-64.61 9.62-21.12 21.35-41.4 28.88-63.35 9.08-26.48 13.67-56.79 2.48-84.41-10.64-26.27-39.86-40.31-37-65.64-5.56 4.09-10.57 3-18.07 3.4-.2-3.86-3.06-9-3.26-12.91-4.79 1.55-12.1 3-17 6-4.36-3-5.69-7-6.61-11.7-12.36 12.69-50.82-1.37-90.95 1-60.79 3.67-94.44 39.67-116.34 85.36s-26.18 97.52-30.13 148c-2.24 28.71-18.77 55.9-28.18 83.11-9 26-18 52-24.85 78.6-19.18 74.26-19.51 152.48-6.63 228.08 5.8 34 16 47.49 24.25 59.36q15.33 2.87 31.06 4.54C473.87 800.55 597.42 761 678 673.88z" fill="#916e4c"/><path class="cls-2" d="M227.77 635.58c-10.12.21-18.9-.59-28-4.58 1.42 8.06 8.62 14.5 16.85 17.92a65.59 65.59 0 0022.33 5.5c3.48.33 7.6.62 10.6-1.34 2.83-1.84 3.92-5.64 4-8.64a8.63 8.63 0 00-2.72-6.87c-2.35-2.09-5.59-2.49-8.76-2.41-5.57.14-8.69.3-14.3.42z"/><path class="cls-2" d="M227.44 656.42c-10.07 1-19.65 1.21-29-1.57 2.11 7 9.84 12.16 18.33 14.51s11.52 3.1 20.59 3.09c3.5 0 7.63-.09 10.46-2.08 2.67-1.87 3.42-5.34 3.27-8a7.37 7.37 0 00-3.3-5.88c-2.53-1.66-5.79-1.74-8.94-1.41-5.62.59-5.85.77-11.41 1.34zm5.35 19.58c-9.42 1.32-17.45 1.79-26.41-.49 2.31 6.53 9.82 11.06 17.91 13s11.44 2.13 20 1.8c3.29-.13 7.17-.36 9.73-2.32s3-5.14 2.69-7.63a7 7 0 00-3.38-5.41c-2.45-1.47-5.51-1.43-8.47-1-5.25.69-6.86 1.29-12.07 2.05z"/><path class="cls-3" d="M572.51 457.94c-11.62-11.21-29.69-13.73-45.39-9.86s-29.44 13.21-42.06 23.29a334.51 334.51 0 00-39.3 37c-11.31 12.5-21.66 25.86-33.35 38A237.84 237.84 0 01286 614.59c-10.47 2-21.2 3.26-31.09 7.23-11.88 4.77-22 13.8-23.79 27-.95 7.05.28 14.25 2.41 21 2.18 6.95 9.27 15 15.32 19.09 17.87 12 36.85 11.55 55.4 11.79 48.19.6 94-17.41 135.65-40.17 42-22.92 83.37-48.9 119.11-80.77 19-16.91 28.61-43.13 30.44-68.44 1.3-17.76-4.08-40.99-16.94-53.38z"/><path class="cls-1" d="M631.82 207.59c10.51 20.57 7.37 41.31-1.26 58.07-15.75 30.59-32 58.75-60.11 78.54s-63.3 30.69-97.39 26.1c-18.41-2.47-36.45-9.54-50.4-21.79-23.07-20.25-32.66-52.95-30-83.53 1.73-20 8-39.33 16.79-57.24 6.25-12.7 12.89-25.47 22-36.38 4.49-5.38 9.78-9.4 15-14 7-6.18 14.13-11.33 23.45-13 8.84-1.6 18.65-1.25 26.21 4.14 4.86 3.46 8.55 8.38 12.72 12.58a137.23 137.23 0 0014.52 12.73c9.54 7.23 18.7 7.79 30.24 9a198.48 198.48 0 0031.13.48c10.54-.53 35.33 1.28 47.1 24.3z"/><path class="cls-3" d="M559.36 232.1c-15.26-5.27-27.19.11-35.07 6.76s-11.39 20.4-8.21 30.21c2.19 6.71 7.62 11.8 13 16.33 9.64 8 20 15.34 28.54 24.52 8.27 8.87 14.89 19.9 16 31.94 13.32-10 23.9-21.91 33.07-35.09-2.5-13.29-7-21.77-13.12-33.86-8.16-16.08-17.17-34.91-34.21-40.81zM410.92 268a89.41 89.41 0 0114-4.11c13.24-2.85 26.58-5.09 39.5-9.16 25.26-7.95 29.25-33.18 18.48-44.69-9.13-9.77-24.76-9.61-36.79-7.45-9.53 1.71-16 5.8-22.2 9.08-10.35 5.44-21.74 16-23.44 17.6a148.81 148.81 0 00-7.8 35.74 114.38 114.38 0 00-.38 13.1l5.84-4.11c3.54-2.5 8.76-4.46 12.79-6z"/><path d="M472 264c-4.32-.33-8.93.15-12.41 2.72-4.49 3.32-6.11 9.67-4.66 15.06s5.53 9.81 10.33 12.65A47.14 47.14 0 00481.9 300a66.74 66.74 0 008.91 1c8.16.22 12.38-4.72 13.35-7.57a18.13 18.13 0 000-11.51c-2-5.94-7.1-9.66-12.6-12.15-6.05-2.77-12.85-5.29-19.56-5.77z" fill="#56524e"/><path d="M495.72 348.38c-12.11 0-18.39-3.8-24.21-8.05a3.31 3.31 0 01-.73-4.64c1.08-1.48 3.15-.48 4.64.61 4.48 3.26 10.07 6 23 5.38 11.15-.54 19-5.77 21.15-10.09a3.32 3.32 0 014.46-1.47c1.64.82 1 2.82.14 4.46-3.12 6.19-11.44 13.05-25.43 13.73-1.05.05-2.06.07-3.02.07zm44.78-102.75a15.32 15.32 0 00-5.23 6.06 38.56 38.56 0 00-3.07 7.31c-.88 2.92-1.32 6.39.59 8.77 2.14 2.67 6.45 2.64 9.34.81s4.65-5 6.13-8.07a22.78 22.78 0 002.41-7.28 10.46 10.46 0 00-1.55-6.79c-.93-1.46-3-2-4.65-1.94a8 8 0 00-3.97 1.13zM473 222.66a15.17 15.17 0 01-1.5 7.86 38.22 38.22 0 01-3.83 6.95c-1.74 2.51-4.19 5-7.24 5-3.43 0-6.08-3.41-6.44-6.82s1-6.73 2.52-9.81a22.82 22.82 0 014.21-6.41 10.44 10.44 0 016.29-3c1.72-.18 3.4 1.15 4.4 2.43a8 8 0 011.59 3.8z"/><path class="cls-6" d="M314.43 198.48a5.37 5.37 0 01-3.61 2.77c-5.52 1.22-19.77 2.53-41.05-8.57-18.29-9.55-26.3-22.59-29-28.07a5.37 5.37 0 010-4.89l42.64-81.95 73.77 38.5z"/><path d="M346.28 120.07c-8.2 0-20.09-3.75-32.62-10.29-15.56-8.12-27.09-18.13-29.38-25.5a6.12 6.12 0 01.18-4.83c.47-.9 2.19-1.42 4.71-1.42 7.65 0 21.41 4.6 35.07 11.73 18.52 9.67 29.74 19.87 31.25 24.95a2.27 2.27 0 010 1.74c-1.7 2.99-5.95 3.62-9.21 3.62z" fill="#b76009"/><path class="cls-6" d="M289.17 79.6c7.42 0 20.9 4.54 34.34 11.55 23.91 12.48 30.8 22.82 30.57 24.57-1.33 2.3-5 2.78-7.8 2.78-8 0-19.58-3.69-31.9-10.11-15-7.82-26.46-17.69-28.6-24.58a4.64 4.64 0 010-3.58s.65-.63 3.35-.63m0-3.14c-3.14 0-5.29.73-6.1 2.26-4.21 8 9.49 21.82 29.86 32.45 12.71 6.63 24.89 10.47 33.35 10.47 5.1 0 8.86-1.4 10.56-4.42C359.78 112 345.34 99 325 88.37c-14.47-7.55-28.11-11.91-35.8-11.91zm-45.38 77.2s-35.49-9.62-15.67-47.58 48.79-14.66 48.79-14.66c-2.51 4.72-5 10.15-7.64 14.79-1.49-.3-2.35-1.91-2.61-3.36s-.16-3-.81-4.31c-1.63-3.32-6.5-3.83-9.71-3.57-6.81.54-10.92 5.4-14.61 10.29-4.07 5.39-7.53 11.62-8.6 18.39a21 21 0 001.67 12.46c1.61 3.3 5 6.94 9.08 6.52 2.2-.23 4.69-1.44 6.87-.17z"/><path d="M382.37 69a14.12 14.12 0 00-2.17.16c-.71.16-.55.28-1.2.6-1.18.56-2.36-1.16-2.35-2.47s.75-5.26 5.5-8.55c1.13-.78 2.79-.14 4 .44a5 5 0 012.69 4.74c0 1.71-1.9 3.28-3.25 4.06a7.55 7.55 0 01-3.22 1.02zM286 84c12 0 21 7 31.64 6.09 3.59-.31 6.5-3.49 10-4 4.05-.64 8.29 1.11 12.25 0 3.16-.91 5.34-3.94 8-6 6.14-4.77 10.22.28 14.68-2.72 1.07-.72 3.74-1.88 4.83-2.54s3.45-1 4.45-.1a4.41 4.41 0 011.2 2.62 11.78 11.78 0 01-2.55 9.46c-1.93 2.22-4.65 3.41-6.58 5.63s-1.25 3.81-2.68 6.39c-2.09 3.77-4.36 4.86-6.16 8.82-2.31 5.08.87 7.44-2.13 9.44-7.16 4.77-23.26 0-31-4C299 101 287.11 90.18 286 84zm98-.75a10.37 10.37 0 00-1.24-1.06c-.47-.29-.44-.14-1-.32-.93-.32-.65-1.87 0-2.56s3.19-2.43 7.48-1.68c1 .18 1.57 1.41 1.93 2.38a3.77 3.77 0 01-1.07 4c-.9.91-2.75.76-3.88.46a5.86 5.86 0 01-2.22-1.22z" fill="#563d24"/><path class="cls-9" d="M365 479.59c1.11 9.59-23.69 57.67-37.83 75.2-10.39 12.89-53.1-6.8-51.64-26.81 1.59-21.87 20.49-63.93 45-69.27 19.47-4.21 43.19 9.96 44.47 20.88z"/><path class="cls-10" d="M365 479.59c1.11 9.59-23.69 57.67-37.83 75.2-3.42 4.24-10.33 5-18 3.29 0 0 10.16-1.88 24.44-25C350.33 506 365 479.59 365 479.59zm-45.08 4.59c.1 1.91 3.78 4.32 6.62 3.23 2.11-.82 1.3-2.05 2.88-4.23 2.53-3.5 3.8-2.41 4.27-4.48s-4.66-5-7.29-3.94c-1.8.75-6.77 4.24-6.48 9.42z"/><path d="M365 479.59c-.7-6.06-8.34-13.12-18.31-17.49-4.5 3.18-21.71 16.27-31.48 36.18l-1.21-.58c9.47-19.3 25.81-32.26 31.23-36.19-7.69-3.1-16.58-4.56-24.71-2.8-24.54 5.34-43.44 47.4-45 69.27-1.46 20 41.25 39.7 51.64 26.81 14.13-17.53 38.93-65.61 37.84-75.2z" fill="none"/><path class="cls-10" d="M315.19 498.28c9.77-19.91 27-33 31.48-36.18l-1.42-.59c-5.42 3.93-21.76 16.89-31.23 36.19z"/><path d="M33 364l78.63-31.55a.33.33 0 00-.06-.6l-5.61-1.28a4.41 4.41 0 00-2.64.19L30.7 359.59a6.21 6.21 0 00-3.38 7.47l13.08 36.71a.33.33 0 00.16.19l.47.21c-.22 0-.34.28-.2.49L77.34 459a6 6 0 003.22 2.45l6.1 1.81c.25.07.43-.25.26-.49L47.4 406.88a.36.36 0 010-.09l-14.58-42.41A.3.3 0 0133 364z" fill="gray"/><path class="cls-9" d="M32.5 369.06l12.24 33.7a6.22 6.22 0 00.73 1.43l38.77 56.47c2.08 3 5.58 4.28 8.64 3.07l73.27-28.86c3.15-1.24 4.17-5.71 2-8.83L130 370.87a6.17 6.17 0 01-.7-1.32l-13.13-34c-1.1-2.86-3.93-4.33-6.42-3.34l-74.51 29.48c-2.6 1.03-3.84 4.31-2.74 7.37z"/><path d="M43.42 372.79l6.14 17a3.51 3.51 0 004.44 2.35l60.75-23.47a4 4 0 001.9-5.08l-6.23-17.32a3.52 3.52 0 00-4.5-2.4l-60.63 23.84a4 4 0 00-1.87 5.08z" fill="#b3bca6"/><path class="cls-10" d="M54.87 402.82l14.04-5.61 6.81 9.88-14.12 5.49-6.73-9.76zm18.59-7.56l14.04-5.6 6.81 9.87-14.12 5.49-6.73-9.76zm18.47-7.58l14.04-5.6 6.81 9.87-14.12 5.49-6.73-9.76zm18.47-7.58l14.04-5.6 6.81 9.87-14.13 5.49-6.72-9.76zm-45.9 36.69l14.04-5.61 6.81 9.87-14.13 5.49-6.72-9.75zm18.59-7.56l14.04-5.61 6.81 9.88-14.13 5.49-6.72-9.76zm18.47-7.58l14.03-5.61 6.82 9.88-14.13 5.49-6.72-9.76zm18.46-7.58l14.04-5.61 6.81 9.88-14.12 5.49-6.73-9.76zm-45.7 36.98l14.04-5.61 6.81 9.88-14.13 5.49-6.72-9.76zm18.59-7.56l14.04-5.6 6.81 9.87-14.13 5.49-6.72-9.76zm18.47-7.58l14.03-5.6 6.81 9.87-14.12 5.49-6.72-9.76zm-27.44 29.1l32.6-12.69 6.81 9.88-32.68 12.57-6.73-9.76zM121 429.88l14.04-5.61 6.81 9.88-14.12 5.49-6.73-9.76z"/><path class="cls-6" d="M129.84 408.79l14.04-5.6 16.44 23.38-14.13 5.49-16.35-23.27z"/></svg>
